<?xml version="1.0" encoding="utf-8"?>
<svg xmlns="http://www.w3.org/2000/svg" xmlns:xlink="http://www.w3.org/1999/xlink" style="margin: auto; background: rgb(255, 255, 255); display: block; shape-rendering: auto;" width="170px" height="170px" viewBox="0 0 100 100" preserveAspectRatio="xMidYMid">
<g transform="translate(50 50)">
<g>
<animateTransform attributeName="transform" type="rotate" values="0;45" keyTimes="0;1" dur="0.22172949002217296s" repeatCount="indefinite"></animateTransform><path d="M28.5657137141714 -5 L36.5657137141714 -5 L36.5657137141714 5 L28.5657137141714 5 A29 29 0 0 1 23.734543782656893 16.663475970791417 L23.734543782656893 16.663475970791417 L29.391398032149272 22.320330220283797 L22.3203302202838 29.391398032149272 L16.66347597079142 23.734543782656893 A29 29 0 0 1 5.000000000000005 28.5657137141714 L5.000000000000005 28.5657137141714 L5.000000000000006 36.5657137141714 L-5.000000000000001 36.5657137141714 L-5.000000000000002 28.5657137141714 A29 29 0 0 1 -16.663475970791414 23.734543782656896 L-16.663475970791414 23.734543782656896 L-22.320330220283793 29.391398032149276 L-29.391398032149272 22.320330220283797 L-23.734543782656893 16.663475970791417 A29 29 0 0 1 -28.565713714171398 5.000000000000008 L-28.565713714171398 5.000000000000008 L-36.565713714171395 5.000000000000009 L-36.5657137141714 -4.999999999999999 L-28.5657137141714 -5 A29 29 0 0 1 -23.7345437826569 -16.663475970791414 L-23.7345437826569 -16.663475970791414 L-29.39139803214928 -22.320330220283793 L-22.3203302202838 -29.391398032149272 L-16.66347597079142 -23.734543782656893 A29 29 0 0 1 -5.000000000000009 -28.565713714171398 L-5.000000000000009 -28.565713714171398 L-5.000000000000011 -36.565713714171395 L4.999999999999997 -36.5657137141714 L4.999999999999999 -28.5657137141714 A29 29 0 0 1 16.66347597079141 -23.7345437826569 L16.66347597079141 -23.7345437826569 L22.32033022028379 -29.391398032149283 L29.391398032149272 -22.3203302202838 L23.734543782656893 -16.66347597079142 A29 29 0 0 1 28.565713714171398 -5.000000000000011 M0 -21A21 21 0 1 0 0 21 A21 21 0 1 0 0 -21" fill="#0a0a0a"></path></g></g>
<!-- [ldio] generated by https://loading.io/ --></svg>